<svg version="1.2" xmlns="http://www.w3.org/2000/svg" viewBox="0 0 1582 551" width="1582" height="551">
	<title>logo-new-eng-svg</title>
	<style>
		.s0 { fill: #009de0 } 
		.s1 { fill: #243571 } 
	</style>
	<g id="Layer">
		<path id="Layer" class="s0" d="m369.1 292.8h-369.1l24.9-73.2h369.1zm39.9-109.8h-369.1l26.6-73.2h367.4zm40-109.8h-369.1l26.6-73.2h369.1z" />
		<path id="Layer" fill-rule="evenodd" class="s1" d="m650 549l-137.9-439.2h96.4l53.2 191.3c14.9 56.6 23.3 86.5 33.2 134.8c10-44.9 15-66.6 33.3-131.5l53.2-194.6h93.1l-138 439.2zm370.7 0v-366h-126.3v-73.2h352.4l-24.9 73.2h-113.1v366zm482.2-232.9c16.6 8.3 33.2 18.3 41.5 24.9c26.6 21.7 36.6 50 36.6 86.6c0 59.8-31.6 103.1-84.8 116.4c-16.6 5-33.2 6.7-63.2 6.7h-159.6v-440.9h141.4c28.2 0 48.2 1.7 66.5 6.7c51.5 13.3 84.7 48.2 84.7 104.8c0 29.9-9.9 54.9-28.2 71.5c-8.3 6.7-18.3 15-34.9 23.3zm-139.7 159.7h61.5c18.3 0 34.9-1.7 46.6-13.3c11.6-11.7 18.3-26.6 18.3-44.9c0-15-3.4-28.3-11.7-38.3c-13.3-16.6-28.2-20-56.5-20h-58.2zm-1.6-189.6h49.8c15 0 23.3 0 30-1.7c19.9-6.6 33.2-24.9 33.2-49.9c0-29.9-13.3-43.2-33.2-48.2c-8.4-1.7-16.7-3.4-33.3-3.4h-46.5z" />
	</g>
</svg>